<?xml version="1.0" encoding="UTF-8" standalone="no"?>
<!-- Created with Inkscape (http://www.inkscape.org/) -->

<svg
   width="1125"
   height="2436"
   viewBox="0 0 1125 2436"
   version="1.1"
   id="svg5"
   sodipodi:docname="pattern.svg"
   inkscape:version="1.1.1 (eb90963e84, 2021-10-02)"
   xmlns:inkscape="http://www.inkscape.org/namespaces/inkscape"
   xmlns:sodipodi="http://sodipodi.sourceforge.net/DTD/sodipodi-0.dtd"
   xmlns="http://www.w3.org/2000/svg"
   xmlns:svg="http://www.w3.org/2000/svg">
  <sodipodi:namedview
     id="namedview8"
     pagecolor="#ffffff"
     bordercolor="#666666"
     borderopacity="1.0"
     inkscape:pageshadow="2"
     inkscape:pageopacity="0.0"
     inkscape:pagecheckerboard="0"
     showgrid="false"
     inkscape:zoom="0.1592775"
     inkscape:cx="210.32474"
     inkscape:cy="1161.4948"
     inkscape:window-width="1920"
     inkscape:window-height="1011"
     inkscape:window-x="0"
     inkscape:window-y="0"
     inkscape:window-maximized="1"
     inkscape:current-layer="layer1" />
  <defs
     id="defs2">
    <linearGradient
       id="linearGradient2835">
      <stop
         style="stop-color:#000000;stop-opacity:1;"
         offset="0"
         id="stop2833" />
    </linearGradient>
  </defs>
  <g
     id="layer1"
     transform="translate(-92.716032,135.79385)">
    <path
       style="fill:none;fill-rule:evenodd;stroke:#e9e5e5;stroke-width:13.6364;stroke-miterlimit:4;stroke-dasharray:327.275, 13.6364;stroke-dashoffset:0;stroke-opacity:1"
       id="path847"
       d="m -171.9509,513.98418 c -11.12169,12.7269 -23.7148,-7.83104 -22.47489,-17.39777 3.36007,-25.92525 37.47315,-33.17087 59.44493,-24.90822 39.302361,14.77997 48.580044,61.66665 30.45469,94.4993 -26.59975,48.18337 -93.93155,58.60375 -141.36479,32.41865 -63.22104,-34.90066 -76.09835,-115.26648 -38.43444,-171.60085 47.39619,-70.89107 151.06813,-84.7119 223.284602,-39.92906 87.46382,54.23802 103.9566,169.13067 46.41422,248.70237 -67.811686,93.77252 -208.353192,110.99802 -305.204442,47.43942 -111.81859,-73.38082 -131.93085,-223.07927 -54.394,-325.80385 88.1023,-116.72219 265.69716,-137.35601 387.124282,-54.94991 136.222898,92.44717 159.957918,277.06659 62.37378,402.90546 -108.33689,139.705 -323.070732,163.7499 -469.044122,62.4603 C -554.42426,656.34448 -581.78444,436.74548 -464.12462,287.81306 -335.58298,125.10653 -83.663246,97.649041 86.839332,217.84228 271.9381,348.3249 302.92509,602.93766 165.17265,774.95082 16.444082,960.67022 -272.69013,991.54192 -467.71114,852.43202 -677.26521,702.95582 -711.88025,413.30783 -554.02424,218.22194 -385.12015,9.4822913 -58.752848,-24.804419 160.77938,133.2303 394.79534,301.69144 433.0393,626.38913 255.07224,844.54192 66.000472,1076.307 -297.61279,1114.0096 -541.65121,937.04402 -800.13371,749.60422 -842.00726,389.84661 -643.92383,148.63081 -434.68994,-106.16348 -33.821428,-147.28242 234.71944,48.618351 517.67189,255.03233 563.17554,649.85739 344.97186,914.13312 115.57991,1191.9594 -322.55067,1236.4952 -615.59126,1021.6559 -923.01622,796.27102 -972.15042,366.37302 -733.82345,79.039701 -484.27656,-221.82068 -8.8786178,-269.77357 308.65951,-35.993629 640.55896,208.35948 693.32401,673.33512 434.87148,983.72422 165.17204,1307.6203 -347.49733,1358.9907 -689.53132,1106.268 -1045.9068,842.94862 -1102.303,342.89216 -823.72306,9.4485713 -533.87302,-337.48464 16.071062,-392.27261 382.59957,-120.6056 763.45243,161.67844 823.47994,696.81842 524.7711,1053.3154 214.77195,1423.2867 -372.44947,1481.4926 -763.47139,1190.88 -1168.8026,889.63262 -1232.4616,319.40663 -913.62266,-60.142549 -583.47572,-453.1529 41.025232,-514.77671 456.53963,-205.21757 886.35004,114.99209 953.64074,720.30572 614.67063,1122.9065 264.37695,1538.9565 -397.4053,1603.9984 -837.41145,1275.4919 -1291.7019,936.32092 -1362.6243,295.91796 -1003.5223,-129.73366 -629.84692,-572.65946 61.906772,-640.33301 530.47965,-289.82954 1013.4328,71.430651 1087.1323,739.85852 704.57029,1192.4975 310.57314,1658.6663 -418.07332,1729.7222 -911.3515,1360.1038 -1419.0004,979.71752 -1496.2938,276.5661 -1093.4219,-199.32478 -679.10359,-688.7368 86.436782,-763.17534 604.41975,-374.44152 1136.7645,25.070521 1217.652,762.94632 794.46994,1262.0887 359.83101,1774.7443 -442.60425,1852.5655 -985.29157,1444.7158 -1542.3329,1026.0787 -1626.8144,253.47763 -1183.3215,-268.91589 -728.36247,-804.81564 110.96849,-886.01945 678.35985,-459.05348 1260.0978,-21.291549 1348.1734,786.03532 884.36944,1331.6798 409.09081,1890.8239 -467.13663,1975.4104 -1059.2316,1529.3278 -1665.6667,1072.4415 -1757.3364,230.38789 -1273.2212,-338.50701 -777.62306,-920.8956 135.50148,-1008.8649 752.29982,-543.66546 1383.4322,-67.655089 1478.696,809.12572 974.26914,1401.271 458.35208,2006.9043 -491.67015,2098.2565 -1133.1717,1613.9399 -1789.0015,1118.8056 -1887.8598,207.29713 -1363.1209,-408.09814 -826.88494,-1036.9764 160.03547,-1131.7115 826.23994,-628.27743 1506.7673,-114.0198 1609.2198,832.21682 1064.1688,1470.8621 507.61451,2122.9855 -516.20455,2221.1035 -1207.1117,1698.5517 -1912.3372,1165.1709 -2018.384,184.20558 -1453.0204,-477.68925 -876.14788,-1153.058 184.57026,-1254.5589 900.18004,-712.88941 1630.1033,-160.38541 1739.7445,855.30872 1154.0682,1540.4531 556.87789,2239.0674 -540.73967,2343.9511 -1281.0519,1783.1638 -2035.6735,1211.5369 -2148.9092,161.1134 -1542.92,-547.28036 -925.4116,-1269.1401 209.10567,-1377.4069 974.12014,-797.50139 1753.4399,-206.75176 1870.27,878.40122 1243.9679,1610.0443 c -637.8259,745.1054 -1809.24328,856.7553 -2598.9598,257.7314 -804.0184,-609.8722 -924.4427,-1729.755 -277.8277,-2484.64719 658.1436,-768.35111 1866.46123,-883.38411 2680.8797,-265.24186 828.7167,628.99462 952.7358,1783.60757 285.8074,2561.74875 -678.46091,791.5969 -1923.67905,910.013 -2762.7996,272.7524 -853.4154,-648.1171 -981.0288,-1837.46024 -293.7871,-2638.85041 698.7782,-814.84299 1980.89721,-936.64219 2844.7194,-280.26271 878.1141,667.23914 1009.3218,1891.31284 301.7669,2715.95192 -719.09522,838.0888 -2038.11523,963.2712 -2926.6391,287.7731 -902.813,-686.3611 -1037.6154,-1945.165619 -309.7469,-2793.05342 739.4125,-861.33518 2095.33366,-989.90048 3008.5591,-295.28358 927.5116,705.48326 1065.9087,1999.01852 317.7264,2870.155 -759.72918,884.5811 -2152.55166,1016.5296 -3090.4787,302.7939 -952.2106,-724.6052 -1094.2023,-2052.871309 -325.7063,-2947.25646 780.0462,-907.82744 2209.77023,-1043.15914 3172.3988,-310.30444 976.9094,743.72702 1122.4955,2106.72442 333.6859,3024.358 -800.36287,931.0738 -2266.98855,1069.7885 -3254.3185,317.815 C -2652.3609,1443.3748 -2801.5416,45.646221 -1992.418,-895.23597 -1171.7384,-1849.556 331.78916,-1991.6541 1343.8203,-1220.5612 2370.128,-438.5908 2522.9035,993.86922 1693.4658,1958 852.46984,2935.5664 -687.95969,3081.0475 -1724.6922,2290.8355 -2775.6992,1489.7435 -2932.0692,22.551951 -2082.3176,-964.82709 -1221.0049,-1965.6399 356.32672,-2114.5044 1417.7604,-1305.1732 2493.4664,-484.95958 2653.431,1016.9636 1783.3657,2027.591 901.73624,3051.6504 -712.49735,3203.8979 -1798.6325,2375.4475 -2899.0376,1536.1124 -3062.5969,-0.54252869 -2172.2171,-1034.4182 c 901.9456,-1047.3059 2553.08158,-1202.9367 3663.9176,-355.367 1125.1044,858.45662 1292.2584,2429.8434 381.5647,3486.9673 -922.26206,1070.5524 -2610.30039,1229.5664 -3745.8376,362.8774 -1149.8037,-877.5779 -1320.5525,-2483.696649 -389.5444,-3564.0688 942.5783,-1093.799 2667.51919,-1256.1963 3827.7573,-370.3878 1174.5033,896.69931 1348.8464,2537.55 397.5242,3641.1703 -962.8946,1117.0456 -2724.73789,1282.8261 -3909.677,377.8983 -1199.2028,-915.8207 -1377.1407,-2591.403429 -405.5043,-3718.2719 983.2111,-1140.2923 2781.95707,-1309.4561 3991.5972,-385.4088 513.3834,392.175 870.8736,950.13527 1000.8021,1560.2395013" />
  </g>
</svg>
